<svg width="48" height="48" viewBox="0 0 48 48" fill="none" xmlns="http://www.w3.org/2000/svg">
<path d="M30.942 0.977508C31.0145 1.04876 31.0345 1.18751 31.0533 1.28751L27.4095 11.0588C30.1208 11.645 32.5933 13.4413 34.0558 15.7825C37.8245 21.8213 34.8658 30.0263 31.4658 35.5588H16.6195C16.3808 35.4775 14.9658 32.6175 14.7633 32.175C12.5808 27.4325 11.0358 21.3813 13.6083 16.4838C15.017 13.8013 17.7045 11.7013 20.6745 11.0588L17.0858 1.59251C16.9445 1.02126 17.092 0.903758 17.6283 0.858758C21.7283 0.513758 26.3045 1.12876 30.4545 0.858758C30.6008 0.871258 30.837 0.873758 30.942 0.978758V0.977508Z" fill="#848484"/>
<path d="M42.8484 40.3475H5.2334V38.2425C5.2334 37.8638 5.96965 37.1975 6.3534 37.1175L41.4934 37.0713C41.9646 37.0638 42.8484 37.8063 42.8484 38.2438V40.3488V40.3475Z" fill="#848484"/>
<path d="M19.9883 41.8625L28.1583 41.8912L30.8783 46.5725C30.8971 46.7787 30.8321 47.0025 30.6183 47.0662L17.3971 47.0387C17.1446 46.915 17.1658 46.4912 17.2833 46.2687L19.9883 41.8637V41.8625Z" fill="#848484"/>
<path d="M43.7561 18.7538C44.8073 18.44 44.8673 19.85 44.9098 20.555C45.1123 23.9138 44.6373 27.5075 43.6423 30.7113C43.5386 31.045 43.2998 31.9363 43.1311 32.165C42.6923 32.7575 41.7736 32.42 41.7373 31.6938C42.9636 28.1913 43.5273 24.6538 43.4123 20.93C43.3948 20.3538 42.9411 18.9975 43.7548 18.755L43.7561 18.7538Z" fill="#848484"/>
<path d="M3.80384 18.7538C4.18384 18.64 4.52134 18.7813 4.71134 19.1163C4.97509 19.58 4.68634 20.3963 4.66884 20.9288C4.55384 24.6525 5.11009 28.1913 6.34384 31.6925C6.24259 32.54 5.25509 32.7788 4.85509 31.9788C4.43009 31.1275 4.01384 29.2425 3.80009 28.2613C3.26009 25.7625 3.00884 23.025 3.17634 20.465C3.20759 19.9975 3.26884 18.9125 3.80259 18.7525L3.80384 18.7538Z" fill="#848484"/>
<path d="M8.19584 19.2287C8.51709 19.2112 8.88584 19.5175 8.95709 19.8287C8.71709 22.705 8.92209 25.4225 9.65834 28.2037C9.89584 29.0987 10.6658 30.7812 10.7483 31.515C10.8233 32.1862 10.2958 32.7012 9.69084 32.3812C9.28209 32.165 8.91209 30.9025 8.74709 30.425C7.71709 27.4475 7.06959 23.7025 7.38834 20.5587C7.44209 20.0262 7.50584 19.2662 8.19709 19.2287H8.19584Z" fill="#848484"/>
<path d="M39.8215 19.2288C40.554 19.1888 40.6415 20.0288 40.6953 20.5588C41.014 23.7088 40.3603 27.4413 39.3365 30.425C39.1728 30.9013 38.799 32.1663 38.3928 32.3813C37.7878 32.7013 37.2603 32.185 37.3353 31.515C37.4178 30.7775 38.189 29.1013 38.4253 28.2038C39.0828 25.7063 39.2653 23.5138 39.204 20.9288C39.1903 20.3713 38.8178 19.285 39.8228 19.2288H39.8215Z" fill="#848484"/>
</svg>
